# xmcd
#
# Track frame offsets:
#	150
#	16967
#	33487
#	53287
#	67645
#	82822
#	96717
#	117857
#	132670
#	149420
#	163695
#
# Disc length: 2387 seconds
#
# Revision: 0
# Processed by: cddbd v1.5.2PL0 Copyright (c) Steve Scherf et al.
# Submitted via: EasyCDDAExtractor 15.3.0.1
#
DISCID=8c09510b
DTITLE=Dulce - Jugo De Exitos - CD 2
DYEAR=1999
DGENRE=Latin
TTITLE0=Amor En Silencio
TTITLE1=Señor Amor
TTITLE2=Dejame Volver Contigo
TTITLE3=Lobo
TTITLE4=Salvaje
TTITLE5=Una Aventura Mas
TTITLE6=Aun Lo Amo
TTITLE7=Amor Caliente
TTITLE8=Soy Una Dama
TTITLE9=Cuando Ya No Me Quieras
TTITLE10=Peleas
EXTD=
EXTT0=
EXTT1=
EXTT2=
EXTT3=
EXTT4=
EXTT5=
EXTT6=
EXTT7=
EXTT8=
EXTT9=
EXTT10=
PLAYORDER=
